<?xml version="1.0" encoding="UTF-8" standalone="no"?>
<svg
   xmlns:dc="http://purl.org/dc/elements/1.1/"
   xmlns:cc="http://creativecommons.org/ns#"
   xmlns:rdf="http://www.w3.org/1999/02/22-rdf-syntax-ns#"
   xmlns:svg="http://www.w3.org/2000/svg"
   xmlns="http://www.w3.org/2000/svg"
   xmlns:sodipodi="http://sodipodi.sourceforge.net/DTD/sodipodi-0.dtd"
   xmlns:inkscape="http://www.inkscape.org/namespaces/inkscape"
   width="512"
   height="512"
   viewBox="0 0 135.46666 135.46667"
   version="1.1"
   id="svg8"
   inkscape:version="1.0 (4035a4fb49, 2020-05-01)"
   sodipodi:docname="tour_editor_add.svg"
   inkscape:export-filename="C:\Users\jayds\Documents\bohios-pro\client\public\icons\tour_editor_add.png"
   inkscape:export-xdpi="96"
   inkscape:export-ydpi="96">
  <defs
     id="defs2" />
  <sodipodi:namedview
     id="base"
     pagecolor="#ffffff"
     bordercolor="#666666"
     borderopacity="1.0"
     inkscape:pageopacity="0.0"
     inkscape:pageshadow="2"
     inkscape:zoom="0.7"
     inkscape:cx="214.06823"
     inkscape:cy="331.93878"
     inkscape:document-units="mm"
     inkscape:current-layer="layer1"
     inkscape:document-rotation="0"
     showgrid="false"
     units="px"
     inkscape:window-width="1366"
     inkscape:window-height="705"
     inkscape:window-x="-8"
     inkscape:window-y="-8"
     inkscape:window-maximized="1" />
  <metadata
     id="metadata5">
    <rdf:RDF>
      <cc:Work
         rdf:about="">
        <dc:format>image/svg+xml</dc:format>
        <dc:type
           rdf:resource="http://purl.org/dc/dcmitype/StillImage" />
        <dc:title />
      </cc:Work>
    </rdf:RDF>
  </metadata>
  <g
     inkscape:label="Layer 1"
     inkscape:groupmode="layer"
     id="layer1">
    <rect
       y="-1.4210855e-14"
       x="0"
       height="135.46666"
       width="135.46666"
       id="rect844"
       style="fill:#ffa52a;fill-opacity:1;stroke-width:4.72424;stroke-linecap:round" />
    <g
       id="g837"
       fill="#4caf50"
       transform="matrix(0.21857178,0,0,0.21857178,16.441961,16.441961)"
       style="fill:#ffffff">
      <path
         id="path833"
         d="M 437.33203,192 H 32 C 14.335938,192 0,206.33594 0,224 v 21.33203 c 0,17.66406 14.335938,32 32,32 h 405.33203 c 17.66406,0 32,-14.33594 32,-32 V 224 c 0,-17.66406 -14.33594,-32 -32,-32 z m 0,0"
         style="fill:#ffffff" />
      <path
         id="path835"
         d="m 192,32 v 405.33203 c 0,17.66406 14.33594,32 32,32 h 21.33203 c 17.66406,0 32,-14.33594 32,-32 V 32 c 0,-17.664062 -14.33594,-32 -32,-32 H 224 c -17.66406,0 -32,14.335938 -32,32 z m 0,0"
         style="fill:#ffffff" />
    </g>
  </g>
</svg>
